# xmcd
#
# Track frame offsets:
#	150
#	17457
#	36664
#	58630
#	78055
#	102681
#	125784
#	141053
#	167448
#	188129
#	223050
#
# Disc length: 4138 seconds
#
# Revision: 1
# Processed by: cddbd v1.5.2PL0 Copyright (c) Steve Scherf et al.
# Submitted via: audiograbber 1.83.01
#
DISCID=9910280b
DTITLE=Parity Boot - Into Nothing
DYEAR=2009
DGENRE=Thrash Metal
TTITLE0=Into Nothing
TTITLE1=Sickness
TTITLE2=Until We're Strong
TTITLE3=Pride
TTITLE4=The Void
TTITLE5=Dying Here
TTITLE6=No More Lies
TTITLE7=Fail
TTITLE8=All Is Gray
TTITLE9=Stare And Burn
TTITLE10=Daten-CD
EXTD=
EXTT0=
EXTT1=
EXTT2=
EXTT3=
EXTT4=
EXTT5=
EXTT6=
EXTT7=
EXTT8=
EXTT9=
EXTT10=
PLAYORDER=
